<svg version="1" xmlns="http://www.w3.org/2000/svg" width="488" height="488" viewBox="0 0 366.000000 366.000000"><path d="M275 31.4c-10.8 3.2-27.7 11.8-37.7 19.2-1.7 1.3-3.4 2.4-3.7 2.4-.3 0-4.1-2.9-8.5-6.4-13.6-11-25.7-15.6-40.9-15.6-15.4 0-23.1 3.2-41.2 17.1l-9.2 7-7.1-5.5C111.5 38.1 96.6 32.1 81 31.3c-11.2-.6-18.6.7-26.7 4.7C36.5 44.9 27.8 64.3 31 88.1c1.7 13.3 8.3 25.3 21.8 40l5.2 5.7L46.9 148c-24.8 31.9-33.6 47.5-39.1 69.9-2.9 11.6-3.1 33.3-.4 43.6 6.4 24.4 23.5 43.8 44.9 50.9 12.9 4.3 33.9 4.2 49.8-.2l6.6-1.8 4.8 4.4c24.4 22.1 60.5 29.5 97.8 20.1 15.3-3.8 34.4-13.6 44.9-22.9l4.7-4.1 8.8 1.2c11.3 1.5 29.5.6 39.4-2 35.9-9.3 59.2-42.8 56.6-81.5-.8-11.9-2.8-19.3-7.7-29.2-8-16-28.8-46.5-43.2-63.5l-5.5-6.5 4.5-4.9c9.4-10.5 17.2-24.2 19.3-34.4.6-3 .9-9.6.7-14.7-.3-8.1-.8-10-4.1-16.7-4.5-9.1-12.6-17.1-22.4-21.9-6.2-3-7.6-3.3-17.3-3.5-6.4-.1-12.2.3-15 1.1zm29.7 10.1c11.5 5.7 19.1 15.6 21.4 28.2 1.5 8.2-.4 17.7-5.7 28.2-4.1 8.2-14.4 22.1-16.4 22.1-2.6 0-1.7-2.7 2.3-6.8 6.1-6.2 11.3-15.1 13.9-23.6 3.1-10.3 2.3-22.1-2.2-30.5-7-13.1-20.1-19-36-16.1-15.6 2.8-27.6 10.1-68.8 41.7-20 15.4-23.4 17.5-24.6 15.5-1-1.6 38.3-33.2 55.4-44.5 27.4-18.3 44.4-22.2 60.7-14.2zm-105.1-.4c6.9 2.2 15.9 7.4 22.5 13.1 4.2 3.6 4.3 3.8 2.6 5.5-1.2 1.2-2.1 1.5-3.1.8C202.9 47.2 197.7 45 184.7 45c-10.2 0-19.6 2.7-26.9 7.5-8 5.3-32.8 27.4-48.1 42.9-12.2 12.2-16.1 15.6-16.8 14.5-.5-.8-.9-1.7-.9-2 0-.3 8.7-9.4 19.3-20.1C131.9 66.9 144.4 56 158.1 47c8.2-5.4 11.7-6.7 22.9-8.4 4.2-.6 12.2.5 18.6 2.5zM92.8 41c10.9 3 23.2 9.6 31.9 17.1 2.5 2.1 2.9 3 1.9 3.8-.9.8-2.8-.1-7.2-3.4-7.6-5.8-17.3-10.8-24.9-13.1-8.7-2.6-22.3-2.4-29.6.5C48.7 52.2 40.4 69 44.4 87.8c2.9 13.9 8.6 22 36.6 51.7 18.9 20.1 28 30.8 28 32.9 0 1.4-2.8 4.2-3.3 3.5-.2-.2-2.5-3.5-5.1-7.2-2.6-3.7-12.9-15.4-22.9-25.8-30.1-31.5-35.5-38.8-38.2-51.5-2.5-11.7-1.3-25.2 3.1-33.6 4-7.7 12.4-14.4 21.9-17.4 6.3-2 19.9-1.7 28.3.6zm204.6 17.4c4.4 1.8 8.2 7 9.6 13 2.1 9.4-2.2 21.6-10.7 30.7-4.4 4.7-4.7 4.8-6.4 3.3-2.1-1.9-2.5-1.4 6.8-12.3 8.3-9.8 9.3-18.7 2.9-25.5-7.4-7.9-17.9-6.8-35.3 3.6-13.1 7.9-25.9 17.1-44 31.5-9.2 7.3-14.8 11.1-15.8 10.7-.8-.3-1.5-1-1.5-1.4 0-1.8 49.9-39.3 61-45.9 13.8-8.2 25.7-10.9 33.4-7.7zM91.2 60c5.7 1.7 14.3 6.4 20.9 11.2 2.1 1.7 2.2 1.9.7 3.4-1.5 1.5-2.1 1.3-8.5-2.5-23.6-14-41-9.5-39 9.9.4 3.4 1.1 7 1.7 8 1.9 3.6 16.6 21.5 29.6 36 7.1 8 16 18.1 19.7 22.4 6.5 7.6 6.7 8 5 9.9-1.7 1.8-1.9 1.7-6.8-3.9-2.7-3.3-10.4-11.6-17-18.7-29.4-31.4-34.8-38-37.8-47.1-3.3-9.6-1.4-19.9 4.6-25.4 5.7-5.3 16.1-6.6 26.9-3.2zm107.4 2.9c3.3 1.8 7.3 4.3 8.9 5.7 2.5 2 2.7 2.6 1.5 3.4-1 .6-2.4.3-4.5-1.1-9.3-6.3-18-8.1-26.7-5.5-10.4 3-35.1 22.8-57.3 45.8-12.2 12.7-13.8 14-15.1 12.6-1.4-1.4.1-3.2 14.8-18 15.2-15.5 41.7-39.1 47-41.9 10.6-5.7 22-6.1 31.4-1zm95.7 10.3c3.2 3.9 1.8 8.8-4.9 16.6-3.2 3.7-6.1 7-6.4 7.5-.3.4-5-3.1-10.3-7.7l-9.6-8.5 6-3.7c12.8-7.7 21.2-9.2 25.2-4.2zM92.8 75.1c3.5 1.6 7.7 3.8 9.3 5l2.9 2.1-9.1 9.9c-7.2 7.8-9.5 9.7-10.5 8.8-.8-.6-3.7-4.3-6.5-8.1-4.2-5.6-5.3-7.9-5.7-11.9-1-10.1 5.8-12.1 19.6-5.8zm101.8-.7c2.8 1.3 5.4 2.8 5.7 3.3.3.5-1.5 2.7-4.1 4.8-2.6 2.2-6.8 5.7-9.4 7.8l-4.7 3.9-7.5-6.2c-4.2-3.4-7.6-6.5-7.6-6.9 0-1.1 8-6.6 11.5-7.9 5-1.7 10.7-1.3 16.1 1.2zm-18.2 25.5c25.2 20.9 50.9 44.7 57.7 53.2 2.5 3.2 2.7 3.8 1.4 5.5-1.2 1.8-2.9.4-24.2-20.6-20.9-20.7-41.1-39.2-50.6-46.4-2.9-2.2-3.5-3.2-2.6-4.2 1.4-1.7.5-2.4 18.3 12.5zm85-9.7c25.6 21.3 49.9 48.4 70.5 78.8 13.4 19.8 19.7 30.8 22.8 39.8 2.4 6.8 2.7 9.2 2.7 21.2.1 15.3-1.3 21.9-6.9 33.8-11.2 23.7-32.1 36.7-61.1 37.9-6.7.3-14.2.3-16.8-.1-4.5-.7-4.5-.8-3.1-3 1.5-2.2 2.2-2.4 17.3-2.9 12.4-.4 17.2-.9 22.7-2.7 21.3-6.7 35.7-21.6 41-42.5 2.2-8.8 2-26.3-.5-36.1-2.6-10.2-5.9-16.8-16.9-33.7-18.1-27.5-33.9-46.8-60.1-72.9-14.3-14.2-19.5-19.9-18.7-20.7 1.5-1.5 1.5-1.6 7.1 3.1zm-97 23.7c8.3 7.2 22.1 20.3 57.9 55 3.4 3.4 3.6 3.8 2.3 5.6-1.4 1.9-2.8.6-25.8-22.5-23-23.2-38.4-37.3-51.1-47-5.2-3.9-5.6-4.4-4-5.5 2-1.5 3-.8 20.7 14.4zm95.1 1.2c25.3 24.8 41.7 44.3 59.6 71.3 11.8 17.7 15.2 24.5 17.3 34.8 2.8 13.6 1.3 25.9-4.5 36.8-7.6 14.4-21.5 22-43 23.6l-9 .7 1.2-2.6c1.3-2.8 3.4-3.7 9.6-3.7 14.7 0 31.5-11.7 38.6-26.8 3.9-8.4 4.9-20.7 2.3-29.3-1.7-5.9-15.8-29.3-27.6-45.9-16.1-22.7-40.6-51.2-57.4-66.6-4.7-4.3-8.6-8.2-8.6-8.7 0-.4.9-.7 1.9-.7 1.2 0 9 6.8 19.6 17.1zm-15.1 1.1l12.8 12.3-7.1 9.9c-3.9 5.4-7.3 10.1-7.6 10.4-.6.6-30-27.9-30-29 0-.8 17.5-15.7 18.5-15.8.3 0 6.3 5.5 13.4 12.2zm-95.1.2c2.6 2.1 4.7 4.2 4.7 4.6 0 .8-25 28.5-25.8 28.5-.2 0-3.8-3.9-8-8.7-8.9-10.4-9.3-8.4 6-24.3l10-10.5 4.2 3.2c2.2 1.8 6.2 5 8.9 7.2zm3.6 23.8c-23.3 25.3-46.3 55.1-52.9 68.3-6 12.1-7.5 18.8-7.5 34 0 12 .7 16.8 4.1 27.6.3 1.2-.3 1.8-2.1 2.1-2.3.5-2.6.1-4-4.6-5.1-18.1-4.4-38 2-53.8 5.1-12.6 25.2-40.4 45.1-62.2 5.4-6 12.8-14.2 16.4-18.2 5.5-6.2 6.7-7.1 7.9-5.9 1.2 1.1-.2 3-9 12.7zm103.5 8c-29.5 42.5-37.4 58.1-39.3 78.3-1.7 18.3 3.3 34.4 14.8 46.8l2.5 2.7-2.2 2.2-2.1 2.2-2.3-2.8c-4.9-6.1-10-15.4-12.5-23.1-3.3-10.3-3.7-26.7-.9-39 1.9-8.7 7.8-21.9 14.5-33 8.5-13.9 33.4-47.6 34.4-46.6.6.6-1.8 4.9-6.9 12.3zm-80.4-7.7c1 1.2-1.1 4.1-12.2 16.8-25.3 28.9-44.3 54.2-47.8 63.4-3.7 9.8-4.6 19.8-2.8 28.9.9 4.4 1.8 8.6 2.1 9.4.4.9-.6 2.4-2.3 3.8l-2.8 2.2-1.6-6.9c-3.1-13.4-1.7-29.3 3.4-40.9 3.7-8.4 19.3-29.9 35-48.2 10.9-12.8 26.4-29.8 27.1-29.9.4-.1 1.2.6 1.9 1.4zm-110.5 5.9c-19.3 23.8-28.6 37.6-36.6 54.1-7.3 15.1-9.9 25.3-9.9 39.5 0 19.5 5.1 32.2 17.9 45 13.2 13.1 27.2 18.4 45.1 16.9 30.2-2.6 52.4-15.8 63.6-38.2 4.8-9.3 6.7-18.2 6.6-30.7 0-11.9-1.7-20.7-6.2-31.1-2.7-6.3-3-9.9-1-9.9.4 0 2.1 3.1 3.8 6.9 14 31.4 9.5 64-11.8 85.1-10.8 10.8-21.3 16.5-38.8 21.2-10.8 2.9-33.2 3.1-41.2.4-20.4-6.9-34.3-21.6-41.2-43.6-2-6.4-2.3-9.6-2.3-21.5.1-12.1.4-15.3 2.8-23.9 5.3-19.3 14.3-35 35.8-62.4l11.2-14.4 2 2.1c2.1 2.1 2.1 2.1.2 4.5zm136.3 19.7l17.2 17.6-5.1 10.2c-6.4 13-8.9 24.2-9 40.1-.1 18.1 4.2 32 14.1 44.8 2.2 2.9 4 5.6 4 6.1 0 1.4-15.4 8-22.7 9.8-4.1 1-10.9 1.6-17.3 1.6-8.8 0-11.8-.5-18.5-2.7-7.8-2.7-16.5-7.3-16.5-8.8 0-.5 1.6-3 3.5-5.7 16.6-23 17.7-56.3 2.8-86.8-3.2-6.6-3.4-7.4-2-9.3 4.3-6.2 30.2-35 31.2-34.8.6.2 8.9 8.2 18.3 17.9zm74.3-15.5c1.7 1.5 1.5 2-4 9.3-13.2 17.3-30.2 45.7-33.2 55.2-2.3 7.5-2.5 20.5-.4 27.6.8 2.8 3.1 7.4 5 10.2 3.3 4.7 3.5 5.4 2.3 7.8-.7 1.4-1.7 2.6-2.3 2.7-1.7.2-8.2-10.6-10.2-16.9-2.5-8.4-2.3-20.8.6-30.2 3.2-10.7 10.8-25.1 20.6-39.3 4.7-6.9 11-16 13.8-20.2 2.9-4.3 5.4-7.8 5.6-7.8.3 0 1.2.7 2.2 1.6zm-196.4 5.5c.8.8-1 4-6.8 11.6-14.8 19.7-28.2 43.5-31.2 55.6-6.3 25 4.1 47.2 26.3 56.4 10.4 4.3 27.9 2.2 41.3-4.9 17.1-9.2 26.7-28 23.7-47.1-.6-3.8-1.7-8.5-2.5-10.4-1.4-3.2-1.4-3.9.1-6.1.9-1.3 2-2 2.4-1.6 1.7 1.9 4.1 12.3 4.7 20.4 2 31.6-20.2 54.1-56.9 57.5-12.9 1.2-24.6-3.4-34.2-13.5-9.9-10.3-14.2-22.5-13.3-37 1-15.1 8-32.1 21.6-52.4 7.3-10.8 21.9-29.6 23-29.6.4 0 1.2.5 1.8 1.1zm211.1 13.2c8.5 11.3 24.8 35.9 29.6 44.8 4.6 8.3 5.9 15 4.5 22.6-3.1 16.5-15.1 28.1-32.7 31.4-3.4.6-6.5 1-6.7.7-.2-.2.3-3.1 1.2-6.3 2.2-7.7 2.4-36.1.4-45-1.6-7.2-10.7-26.8-15.6-33.6l-3.6-5 6.3-8.6c3.5-4.7 6.7-9.1 7.3-9.8 1.3-1.9 1.5-1.6 9.3 8.8zm-199.3.3c2.5 3.1 5.7 7.7 7.2 10.1l2.5 4.4-5.5 8.3c-10.8 16.2-14.7 26.8-16.2 43.2-.7 8.6.6 23.5 3 32.5 1.9 7.2 1.1 7.8-7.3 5.6-16.8-4.4-27.4-18.1-27.4-35.7-.1-9.6 2-16.9 8.5-29.4 7.2-14.1 27.6-44.6 29.9-44.6.4 0 2.8 2.5 5.3 5.6zM272.6 202c7.2 14.6 8.8 23 8.1 41.5-.9 24.7-9.1 43.4-26.1 59.2-8.5 8-13.5 11.4-24.8 16.8-28.3 13.6-60.8 15-87.8 4-6.3-2.7-16.7-9-22.4-13.7l-2.8-2.4 2.4-1.1c2.2-1 3.2-.6 8.5 3.1 14.1 9.8 30.7 15.3 48.9 16.3 45 2.4 86.2-24.7 98.6-64.7 3.1-10 3.3-30.9.4-41-2.2-7.5-7.4-19.3-11.4-25.9-2.3-3.7-2.7-5-1.8-6.4 1-1.6 1.2-1.5 2.8.5 1 1.3 4.3 7.5 7.4 13.8zm-17.3 6.7c5.7 11.3 7.2 18 7.2 31.3 0 11-.4 13.4-2.7 19.8-7 19.3-20.6 33.6-41.1 43.2-26.1 12.2-54.6 11-79.4-3.6l-4.3-2.5 3.5-3 3.5-3.1 2.9 2.1c5.2 3.7 15.4 8 22.9 9.7 5.7 1.3 10.3 1.5 19.6 1.1 14-.6 20.9-2.3 32.1-7.7 33.3-16 46.8-47.6 34.5-81.2-2.5-6.7-3-10.8-1.4-10.8.2 0 1.4 2.1 2.7 4.7zm-4.8 24.9c.4 3.4.4 8.1 0 10.5l-.7 4.3-1.9-3.6c-2.5-4.9-3.9-14.3-2.9-20.3.5-2.8 1-5.7 1-6.5.3-2.7 3.8 9.4 4.5 15.6zm-125 1.4c-.1 6.4-.6 9.6-2.2 13l-2 4.5-.8-5.8c-.8-6.5-.3-13.4 1.6-19.7 1.1-3.6 1.4-3.9 2.3-2.3.6 1 1.1 5.6 1.1 10.3z"/></svg>