<svg xmlns="http://www.w3.org/2000/svg" width="285" height="129"><path d="M435.264 333.871h1.915V314.41h10.382v-1.826h-24.596v21.053s-.509 2.064.517 3.842c1.027 1.777 1.337 2.52 3.04 3.343 1.702.825 2.34.96 4.305.96h11.62s1.622-.006 2.662-.4c1.038-.396 1.773-.825 2.37-1.443.597-.618 1.04-1.475 1.04-1.475s.752.95 1.277 1.475c.524.525 1.378 1.058 2.05 1.415.673.356 2.366.5 3.174.5h12.611s2.194.12 4.359-1.104c2.165-1.224 2.611-3.114 2.825-4.388.212-1.273.212-1.462.212-1.863v-1.97l-3.586-3.863-8.465-9.122-1.437 1.21 11.572 12.468s-.077 2.238-.234 2.984c-.157.746-.762 2.006-1.628 2.558-.865.55-1.714 1.122-3.52 1.158-1.804.035-13.142.035-13.142.035s-1.958-.228-2.786-.898c-.827-.672-1.437-1.175-1.784-2.107-.346-.93-.478-1.97-.478-1.97h-1.982s-.387 1.97-.94 2.76c-.552.788-1.827 1.832-3.19 2.03-1.365.2-7.372.185-7.372.185h-5.759s-2.459-.17-3.395-1.093c-.937-.924-1.561-1.592-1.825-2.843-.262-1.252-.195-3.867-.195-3.867v-17.744h10.383v19.462zm-29.047 50.454c0 .521-.14 1.038-.42 1.546-.28.51-.672.94-1.175 1.295-.55.384-1.195.682-1.93.9-.736.214-1.623.322-2.66.322-1.11 0-2.11-.09-2.998-.27a16.508 16.508 0 0 1-2.71-.802v-2.227h.146c.781.565 1.68.997 2.701 1.304 1.023.303 1.984.457 2.883.457 1.27 0 2.26-.206 2.967-.62.706-.414 1.06-.964 1.06-1.654 0-.592-.166-1.03-.501-1.312-.336-.283-.846-.5-1.529-.656a16.764 16.764 0 0 0-1.682-.295 46.703 46.703 0 0 1-1.924-.298c-1.365-.252-2.38-.681-3.039-1.289-.661-.61-.99-1.402-.99-2.377 0-1.12.545-2.04 1.638-2.755 1.09-.715 2.476-1.074 4.155-1.074a15.316 15.316 0 0 1 5.386.935v2.101h-.145c-.586-.432-1.358-.787-2.316-1.073a10.21 10.21 0 0 0-2.935-.427c-1.097 0-1.98.197-2.645.593-.67.395-1.002.905-1.002 1.527 0 .56.167.994.5 1.314.328.316.912.561 1.75.726.442.087 1.068.188 1.884.308.814.12 1.504.242 2.073.367 1.146.264 2.008.664 2.588 1.198.58.53.87 1.276.87 2.236zm-20.812-8.026a5.944 5.944 0 0 1 1.446 2.202c.336.87.503 1.854.503 2.955 0 1.105-.17 2.093-.514 2.964-.343.871-.82 1.599-1.435 2.179a6.206 6.206 0 0 1-2.254 1.367c-.865.304-1.856.458-2.966.458-1.086 0-2.073-.156-2.96-.466-.888-.313-1.641-.764-2.264-1.36-.622-.592-1.1-1.32-1.435-2.184-.336-.863-.502-1.846-.502-2.958 0-1.088.166-2.067.498-2.932a6.023 6.023 0 0 1 1.45-2.225c.608-.589 1.362-1.038 2.263-1.35.902-.31 1.885-.466 2.95-.466 1.104 0 2.097.156 2.977.472.88.313 1.627.761 2.243 1.344zm-.188 5.157c0-1.736-.448-3.077-1.347-4.022-.899-.941-2.123-1.414-3.678-1.414-1.567 0-2.797.473-3.692 1.414-.895.945-1.34 2.286-1.34 4.022 0 1.758.456 3.103 1.367 4.032.91.932 2.133 1.398 3.665 1.398 1.534 0 2.754-.466 3.663-1.398.91-.93 1.362-2.274 1.362-4.032zm-17.556 6.69H357.9V374.76h2.051v11.8h7.71v1.584zm-16.152 0h-2.663l-5.166-5.32h-2.883v5.32h-2.05V374.76h4.32c.93 0 1.71.053 2.332.158.618.104 1.18.291 1.676.561.559.306.996.69 1.311 1.156.315.464.471 1.053.471 1.768 0 .962-.28 1.77-.838 2.42-.56.651-1.33 1.142-2.31 1.47l5.8 5.851zm-4.795-9.617c0-.383-.078-.724-.234-1.021-.155-.298-.414-.547-.771-.752a3.097 3.097 0 0 0-1.057-.362 8.64 8.64 0 0 0-1.44-.104h-2.415v5.053h2.073c.65 0 1.216-.05 1.701-.148.48-.101.89-.285 1.23-.555a2.39 2.39 0 0 0 .69-.865c.149-.329.223-.742.223-1.246zm-14.71 9.616h-2.182l-1.51-3.731h-6.683l-1.51 3.731h-2.084l5.616-13.384h2.738l5.616 13.384zm-4.335-5.259-2.7-6.566-2.712 6.566h5.412zm-15.13 4.29c-.38.14-.725.275-1.03.402a11.25 11.25 0 0 1-1.21.395c-.42.113-.875.212-1.37.292a9.947 9.947 0 0 1-1.632.123c-1.12 0-2.135-.135-3.05-.41a6.375 6.375 0 0 1-2.388-1.282c-.665-.567-1.182-1.29-1.557-2.168-.37-.878-.558-1.9-.558-3.063 0-1.101.18-2.086.537-2.954a5.887 5.887 0 0 1 1.556-2.202c.654-.58 1.447-1.025 2.377-1.333.93-.303 1.96-.456 3.095-.456.827 0 1.655.085 2.478.26.828.175 1.744.479 2.752.918v2.11h-.155c-.85-.617-1.692-1.067-2.53-1.347a8.317 8.317 0 0 0-2.68-.422c-.782 0-1.485.11-2.108.327a4.63 4.63 0 0 0-1.672 1.02c-.478.45-.85 1.018-1.114 1.705-.265.684-.4 1.475-.4 2.374 0 .943.145 1.753.439 2.428.293.677.67 1.23 1.135 1.653a4.61 4.61 0 0 0 1.693.985 6.56 6.56 0 0 0 2.048.32c.987 0 1.914-.148 2.776-.443a8.209 8.209 0 0 0 2.423-1.32h.145v2.087zm-30.542-10.877c.63.599 1.11 1.331 1.447 2.202.336.87.502 1.854.502 2.955 0 1.105-.17 2.093-.512 2.964-.344.871-.822 1.599-1.437 2.179a6.212 6.212 0 0 1-2.252 1.367c-.866.304-1.856.458-2.968.458-1.085 0-2.072-.156-2.96-.466-.887-.313-1.64-.764-2.263-1.36-.623-.592-1.1-1.32-1.435-2.184-.337-.863-.503-1.846-.503-2.958 0-1.088.166-2.067.499-2.932a6.038 6.038 0 0 1 1.45-2.225c.609-.589 1.361-1.038 2.264-1.35.9-.31 1.885-.466 2.948-.466 1.104 0 2.098.156 2.978.472.881.313 1.627.761 2.242 1.344zm-.187 5.157c0-1.736-.449-3.077-1.348-4.022-.897-.941-2.12-1.414-3.677-1.414-1.566 0-2.798.473-3.693 1.414-.895.945-1.34 2.286-1.34 4.022 0 1.758.457 3.103 1.37 4.032.908.932 2.132 1.398 3.663 1.398 1.535 0 2.755-.466 3.664-1.398.908-.93 1.36-2.274 1.36-4.032zm-18.055 6.69h-2.181l-1.51-3.732h-6.684l-1.511 3.731h-2.083l5.616-13.384h2.738l5.615 13.384zm-4.335-5.26-2.699-6.566-2.712 6.566h5.41zm1.686-12.65c-.074.912-.342 1.6-.799 2.06-.456.463-1.065.693-1.832.693-.375 0-.718-.059-1.036-.175a3.31 3.31 0 0 1-.902-.51 7.186 7.186 0 0 0-.823-.579 1.457 1.457 0 0 0-.743-.194c-.357 0-.626.135-.806.405-.181.27-.284.633-.311 1.09h-1.36c.057-.906.33-1.59.818-2.05.492-.463 1.093-.693 1.804-.693.346 0 .679.058 1 .175.323.116.626.282.916.5.325.245.615.428.867.552.25.123.49.184.72.184a.96.96 0 0 0 .826-.414c.194-.276.304-.624.325-1.044h1.336zm-17.212 14.09c0 .52-.142 1.037-.422 1.545a3.846 3.846 0 0 1-1.173 1.295c-.552.384-1.195.682-1.932.9-.735.214-1.622.322-2.658.322-1.112 0-2.112-.09-3-.27a16.52 16.52 0 0 1-2.71-.802v-2.227h.146c.782.565 1.68.997 2.702 1.304 1.022.303 1.984.457 2.883.457 1.269 0 2.26-.206 2.966-.62.708-.414 1.061-.964 1.061-1.654 0-.592-.166-1.03-.502-1.312-.335-.283-.845-.5-1.528-.656-.52-.12-1.078-.22-1.683-.295a47.37 47.37 0 0 1-1.924-.298c-1.365-.252-2.38-.681-3.038-1.289-.66-.61-.99-1.402-.99-2.377 0-1.12.545-2.04 1.638-2.755 1.089-.715 2.475-1.074 4.155-1.074a15.316 15.316 0 0 1 5.386.935v2.101h-.145c-.587-.432-1.357-.787-2.316-1.073a10.217 10.217 0 0 0-2.935-.427c-1.096 0-1.981.197-2.646.593-.668.395-1 .905-1 1.527 0 .56.166.994.498 1.314.33.316.913.561 1.75.726.443.087 1.07.188 1.885.308.814.12 1.503.242 2.073.367 1.146.264 2.009.664 2.589 1.198.58.53.87 1.276.87 2.236zm176.81-60.91-7.325 6.995c-4.99-5.258-10.594-7.887-16.823-7.887-5.271 0-9.701 1.799-13.3 5.386-3.6 3.586-5.399 8.015-5.399 13.274 0 3.664.792 6.919 2.387 9.751 1.595 2.848 3.855 5.081 6.765 6.701 2.922 1.622 6.165 2.425 9.726 2.425 3.037 0 5.82-.56 8.347-1.697 2.45-1.106 5.688-3.086 8.61-5.961-1.666 2.48-2.87 7.228-3.01 10.05-.138 2.82.01 3.243.244 4.71-.477.24-1.495.46-1.964.66-3.612 1.53-7.735 2.297-12.38 2.297-8.54 0-15.547-2.706-20.997-8.131-5.438-5.424-8.169-12.368-8.169-20.843 0-5.488 1.238-10.365 3.726-14.627 2.477-4.264 6.025-7.684 10.66-10.275 4.62-2.591 9.598-3.894 14.933-3.894 4.544 0 8.909.958 13.109 2.885 4.198 1.915 7.823 4.646 10.86 8.181zm-190.002-9.687h10.39v55.012h-10.39V313.73zm68.943 9.687-7.328 6.995c-4.99-5.258-10.593-7.887-16.822-7.887-5.271 0-9.7 1.799-13.3 5.386-3.6 3.586-5.399 8.015-5.399 13.274 0 3.664.791 6.919 2.386 9.751 1.597 2.848 3.855 5.081 6.765 6.701 2.923 1.622 6.165 2.425 9.727 2.425 3.037 0 5.82-.56 8.347-1.697 2.515-1.135 5.284-3.19 8.296-6.19l7.11 7.402c-4.07 3.97-7.913 6.714-11.526 8.247-3.612 1.53-7.735 2.297-12.381 2.297-8.539 0-15.546-2.706-20.996-8.131-5.438-5.424-8.17-12.368-8.17-20.843 0-5.488 1.24-10.365 3.728-14.627 2.477-4.264 6.024-7.684 10.658-10.275 4.62-2.591 9.599-3.894 14.934-3.894 4.543 0 8.908.958 13.108 2.885 4.2 1.915 7.824 4.646 10.863 8.181zm187.507-4.14h-1.915v20.733h-10.382v1.826h12.689l-.217-9.646 12.124-.095V320.78s.509-2.063-.517-3.84c-1.027-1.778-1.337-2.52-3.04-3.345-1.702-.825-2.34-.958-4.305-.958h-11.62s-1.622.005-2.662.4c-1.038.395-1.773.823-2.37 1.442-.597.619-1.04 1.475-1.04 1.475s-.752-.95-1.276-1.475c-.525-.525-1.379-1.059-2.051-1.415-.673-.355-2.366-.499-3.174-.499h-12.611s-2.194-.12-4.359 1.103c-2.165 1.224-2.611 3.114-2.824 4.387-.213 1.274-.213 1.463-.213 1.864v1.97l3.586 3.864 8.466 9.121 1.436-1.21-11.572-12.469s.077-2.237.235-2.983c.156-.747.761-2.007 1.627-2.557.865-.55 1.714-1.123 3.52-1.16 1.804-.035 13.142-.035 13.142-.035s1.958.23 2.786.9c.827.67 1.437 1.174 1.784 2.105.346.933.478 1.972.478 1.972h1.982s.387-1.972.94-2.76c.552-.79 1.827-1.833 3.19-2.032 1.365-.198 7.372-.185 7.372-.185h5.759s2.459.172 3.395 1.095c.937.923 1.561 1.59 1.825 2.843.262 1.251.195 3.866.195 3.866l.169 7.958H487.32l-.169-10.948zm-176.82-5.547h10.25l12.712 38.369 12.905-38.37h10.096l9.266 55.013h-10.096l-5.91-34.743-11.704 34.743h-9.229l-11.55-34.743-6.026 34.743h-10.211l9.496-55.012z" style="fill:#151515;fill-opacity:1;fill-rule:evenodd;stroke:none" transform="translate(-230.66 -311.894)"/><g style="fill-rule:evenodd;stroke:#151515;stroke-opacity:1"><path d="M285.248 677.604c11.218-9.465 20.923-17.683 28.116-15.566 7.192 2.117 12.041 11.456 1.309 21.792" style="fill:none;stroke:#151515;stroke-width:1.72281003;stroke-opacity:1" transform="matrix(1.25 0 0 1.25 -126.756 -790.126)"/><path d="M291.034 682.336c5.041-4.234 10.709-8.717 16.357-11.831 4.893-2.615 7.459.872 5.547 3.985l-3.545 4.11" style="fill:none;stroke:#151515;stroke-width:1.72281003;stroke-opacity:1" transform="matrix(1.25 0 0 1.25 -126.756 -790.126)"/><path d="M302.997 672.996c11.082 8.842 18.412 18.804 23.757 28.268 5.206 10.461-.919 29.638-22.899 25.279" style="fill:none;stroke:#151515;stroke-width:1.72281003;stroke-opacity:1" transform="matrix(1.25 0 0 1.25 -126.756 -790.126)"/><path d="M297.205 677.479c9.84 8.593 17.538 18.928 22.761 28.268 2.535 5.604-1.821 14.196-11.397 13.325" style="fill:none;stroke:#151515;stroke-width:1.72281003;stroke-opacity:1" transform="matrix(1.25 0 0 1.25 -126.756 -790.126)"/><path d="M304.774 696.906c2.089 1.992 3.167 4.981 4.496 7.845 6.576 28.019-29.17 37.234-41.407 22.042" style="fill:none;stroke:#151515;stroke-width:1.72281003;stroke-opacity:1" transform="matrix(1.25 0 0 1.25 -126.756 -790.126)"/><path d="M304.198 684.826c-4.073 6.227-8.751 11.208-11.593 18.431-1.58 5.977-1.924 12.701 4.089 18.928" style="fill:none;stroke:#151515;stroke-width:1.72281003;stroke-opacity:1" transform="matrix(1.25 0 0 1.25 -126.756 -790.126)"/><path d="M309.728 690.057c-3.545 4.109-6.731 9.215-9.289 13.947-1.665 3.238-1.62 8.841 1.586 11.083" style="fill:none;stroke:#151515;stroke-width:1.72281003;stroke-opacity:1" transform="matrix(1.25 0 0 1.25 -126.756 -790.126)"/><path d="M300.82 703.506c8.718 17.434-14.351 28.392-25.171 18.679" style="fill:none;stroke:#151515;stroke-width:1.72428;stroke-opacity:1" transform="matrix(1.25 0 0 1.25 -126.756 -790.126)"/><path d="M276.736 698.275c8.759 14.57.562 30.51-18.113 30.261-11.327-.374-19.608-13.574-11.794-28.891 2.944-5.604 6.735-9.464 10.166-14.321" style="fill:none;stroke:#151515;stroke-width:1.72281003;stroke-opacity:1" transform="matrix(1.25 0 0 1.25 -126.756 -790.126)"/><path d="M285.352 687.815c-4.683 5.355-9.364 10.46-13.179 16.064-2.786 3.238-3.605 8.344-1.668 12.204" style="fill:none;stroke:#151515;stroke-width:1.72281003;stroke-opacity:1" transform="matrix(1.25 0 0 1.25 -126.756 -790.126)"/><path d="M274.284 677.977c8.012 5.853 14.756 13.2 21.138 19.8" style="fill:none;stroke:#151515;stroke-width:1.72084999;stroke-opacity:1" transform="matrix(1.25 0 0 1.25 -126.756 -790.126)"/><path d="M280.324 682.336c-5.443 6.226-11.123 11.581-15.333 18.679-3.933 5.106-4.411 12.453-1.776 19.8" style="fill:none;stroke:#151515;stroke-width:1.72281003;stroke-opacity:1" transform="matrix(1.25 0 0 1.25 -126.756 -790.126)"/><path d="M271.654 705.374c2.546 4.856 1.292 14.196-10.801 15.192-5.227-.249-12.361-6.475-6.731-17.06 2.303-4.359 4.847-8.095 8.141-12.08" style="fill:none;stroke:#151515;stroke-width:1.72281003;stroke-opacity:1" transform="matrix(1.25 0 0 1.25 -126.756 -790.126)"/><path d="M267.147 698.275c-3.502-7.72-14.491-14.32-16.877-21.668-3.392-15.441 12.353-19.302 23.528-8.219" style="fill:none;stroke:#151515;stroke-width:1.72281003;stroke-opacity:1" transform="matrix(1.25 0 0 1.25 -126.756 -790.126)"/><path d="M272.474 691.426c-4.524-5.853-9.687-10.585-13.961-16.562-1.784-5.853 3.086-6.849 10.229-1.245" style="fill:none;stroke:#151515;stroke-width:1.72281003;stroke-opacity:1" transform="matrix(1.25 0 0 1.25 -126.756 -790.126)"/><path d="M267.203 685.573c4.313-5.603 9.988-10.584 15.775-14.694 3.764-1.992 6.23-.249 8.815 1.868" style="fill:none;stroke:#151515;stroke-width:1.72281003;stroke-opacity:1" transform="matrix(1.25 0 0 1.25 -126.756 -790.126)"/><path d="M261.801 680.094c5.814-5.977 11.764-12.826 19.173-17.185 7.76-2.739 12.935 1.121 16.737 5.23" style="fill:none;stroke:#151515;stroke-width:1.72281003;stroke-opacity:1" transform="matrix(1.25 0 0 1.25 -126.756 -790.126)"/><path d="M288.207 679.721c7.93-5.978 13.222-10.336 15.73-11.582 12.945-8.343 17.849 5.853 8.158 13.076" style="fill:none;stroke:#151515;stroke-width:3.36081004;stroke-opacity:1" transform="matrix(1.25 0 0 1.25 -126.756 -790.126)"/><path d="M280.08 673.245c7.139 5.853 13.786 11.332 19.547 17.808" style="fill:none;stroke:#151515;stroke-width:1.72084999;stroke-opacity:1" transform="matrix(1.25 0 0 1.25 -126.756 -790.126)"/><path d="M299.852 675.238c9.6 7.969 17.307 17.683 22.171 25.902 5 7.471 3.395 24.034-15.375 21.668" style="fill:none;stroke:#151515;stroke-width:3.36081004;stroke-opacity:1" transform="matrix(1.25 0 0 1.25 -126.756 -790.126)"/><path d="M306.657 687.068c-3.458 6.724-18.727 20.921-7.056 32.128" style="fill:none;stroke:#151515;stroke-width:3.36129999;stroke-opacity:1" transform="matrix(1.25 0 0 1.25 -126.756 -790.126)"/><path d="M302.737 700.019c14.029 20.547-13.885 39.476-31.117 25.279M276.937 675.362c7.514 5.728 13.894 12.453 20.404 18.804M282.902 684.951c-5.688 5.977-10.753 11.83-14.824 17.932-3.184 4.981-3.388 10.585-1.225 16.064" style="fill:none;stroke:#151515;stroke-width:3.36081004;stroke-opacity:1" transform="matrix(1.25 0 0 1.25 -126.756 -790.126)"/><path d="M274.204 701.14c5.342 9.713 1.666 23.037-15.027 23.411-6.963-.747-13.588-7.721-10.703-17.932 1.572-5.479 6.15-12.204 11.59-18.181M269.813 694.664c-4.145-6.226-12.888-13.2-15.185-18.057-3.978-9.215 5.701-15.566 16.276-6.102" style="fill:none;stroke:#151515;stroke-width:3.36081004;stroke-opacity:1" transform="matrix(1.25 0 0 1.25 -126.756 -790.126)"/><path d="M264.881 682.46c4.813-5.728 9.478-9.713 15.275-14.57 7.155-3.985 10.592-.498 14.41 2.491" style="fill:none;stroke:#151515;stroke-width:3.36081004;stroke-opacity:1" transform="matrix(1.25 0 0 1.25 -126.756 -790.126)"/><path d="M272.474 691.426c-4.524-5.853-9.687-10.584-13.961-16.562-1.785-5.853 3.086-6.849 10.229-1.245-7.143-5.604-12.014-4.608-10.229 1.245 4.274 5.978 9.437 10.709 13.961 16.562zM282.902 684.951c-5.688 5.977-10.753 11.83-14.824 17.932-3.184 4.981-3.389 10.585-1.225 16.064-2.164-5.479-1.959-11.083 1.225-16.064 4.071-6.102 9.136-11.955 14.824-17.932z" style="fill:none;stroke:#151515;stroke-width:.85039401;stroke-opacity:1" transform="matrix(1.25 0 0 1.25 -126.756 -790.126)"/></g></svg>